# Blender 4.5.1 LTS
# www.blender.org
o floor
v -50.000000 -50.499996 -50.000004
v -50.000000 -50.500008 49.999996
v -50.000000 -49.500004 49.999996
v -50.000000 -49.499992 -50.000004
v -50.000000 -50.500008 49.999996
v 50.000000 -50.500008 49.999996
v 50.000000 -49.500004 49.999996
v -50.000000 -49.500004 49.999996
v 50.000000 -50.500008 49.999996
v 50.000000 -50.499996 -50.000004
v 50.000000 -49.499992 -50.000004
v 50.000000 -49.500004 49.999996
v 50.000000 -50.499996 -50.000004
v -50.000000 -50.499996 -50.000004
v -50.000000 -49.499992 -50.000004
v 50.000000 -49.499992 -50.000004
v 50.000000 -50.499996 -50.000004
v 50.000000 -50.500008 49.999996
v -50.000000 -50.500008 49.999996
v -50.000000 -50.499996 -50.000004
v -50.000000 -49.499992 -50.000004
v -50.000000 -49.500004 49.999996
v 50.000000 -49.500004 49.999996
v 50.000000 -49.499992 -50.000004
vn -1.0000 -0.0000 -0.0000
vn -0.0000 -0.0000 1.0000
vn 1.0000 -0.0000 -0.0000
vn -0.0000 -0.0000 -1.0000
vn -0.0000 -1.0000 -0.0000
vn -0.0000 1.0000 -0.0000
vt 0.000000 0.000000
vt 1.000000 0.000000
vt 1.000000 1.000000
vt 0.000000 1.000000
s 1
f 1/1/1 2/2/1 3/3/1
f 1/1/1 3/3/1 4/4/1
f 5/1/2 6/2/2 7/3/2
f 5/1/2 7/3/2 8/4/2
f 9/1/3 10/2/3 11/3/3
f 9/1/3 11/3/3 12/4/3
f 13/1/4 14/2/4 15/3/4
f 13/1/4 15/3/4 16/4/4
f 17/1/5 18/2/5 19/3/5
f 17/1/5 19/3/5 20/4/5
f 21/1/6 22/2/6 23/3/6
f 21/1/6 23/3/6 24/4/6
